#N canvas 356 84 567 495 10;
#X obj 27 90 openpanel;
#X obj 27 67 bng 15 250 50 0 empty empty empty 17 7 0 10 -262144 -1
-1;
#X msg 27 112 read \$1;
#X obj 146 346 qlist;
#X obj 170 257 t b;
#X obj 181 284 t b;
#X msg 181 308 print;
#X msg 175 121 1;
#X msg 213 120 -1;
#X floatatom 143 195 5 0 0 0 - - -;
#X obj 148 147 f;
#X obj 194 147 +;
#X obj 148 64 bng 15 250 50 0 empty empty empty 17 7 0 10 -262144 -1
-1;
#X obj 186 64 bng 15 250 50 0 empty empty empty 17 7 0 10 -262144 -1
-1;
#X obj 148 85 t b b;
#X obj 186 85 t b b;
#X obj 145 173 + 1;
#X msg 145 219 read scene\$1.txt;
#X text 24 43 readfile;
#X text 148 43 read scene+/-.txt;
#X floatatom 31 412 5 0 0 0 - - -;
#X floatatom 134 413 5 0 0 0 - - -;
#X obj 20 384 r interpolation;
#X obj 123 384 r 1004-octospace;
#X floatatom 240 414 5 0 0 0 - - -;
#X obj 229 385 r 1004-grainpitch;
#X floatatom 353 414 5 0 0 0 - - -;
#X obj 342 385 r 1004-grainenv;
#X floatatom 454 414 5 0 0 0 - - -;
#X obj 443 385 r 1004-grainamp;
#X obj 111 25 loadbang;
#X connect 0 0 2 0;
#X connect 1 0 0 0;
#X connect 2 0 3 0;
#X connect 2 0 4 0;
#X connect 4 0 3 0;
#X connect 4 0 5 0;
#X connect 5 0 6 0;
#X connect 6 0 3 0;
#X connect 7 0 11 1;
#X connect 8 0 11 1;
#X connect 9 0 17 0;
#X connect 10 0 11 0;
#X connect 10 0 16 0;
#X connect 11 0 10 1;
#X connect 12 0 14 0;
#X connect 13 0 15 0;
#X connect 14 0 10 0;
#X connect 14 1 7 0;
#X connect 15 0 10 0;
#X connect 15 1 8 0;
#X connect 16 0 9 0;
#X connect 17 0 3 0;
#X connect 17 0 4 0;
#X connect 22 0 20 0;
#X connect 23 0 21 0;
#X connect 25 0 24 0;
#X connect 27 0 26 0;
#X connect 29 0 28 0;
#X connect 30 0 12 0;
